<?xml version="1.0" encoding="UTF-8" standalone="no"?>
<!-- Created with Inkscape (http://www.inkscape.org/) -->

<svg
   xmlns:dc="http://purl.org/dc/elements/1.1/"
   xmlns:cc="http://creativecommons.org/ns#"
   xmlns:rdf="http://www.w3.org/1999/02/22-rdf-syntax-ns#"
   xmlns:svg="http://www.w3.org/2000/svg"
   xmlns="http://www.w3.org/2000/svg"
   xmlns:sodipodi="http://sodipodi.sourceforge.net/DTD/sodipodi-0.dtd"
   xmlns:inkscape="http://www.inkscape.org/namespaces/inkscape"
   width="48"
   height="48"
   viewBox="0 0 48.000001 48.000001"
   id="svg4826"
   version="1.1"
   inkscape:version="0.92.3 (unknown)"
   sodipodi:docname="source_ic_icon.svg">
  <defs
     id="defs4828">
    <clipPath
       clipPathUnits="userSpaceOnUse"
       id="clipPath4792">
      <path
         style="fill:#ff8800"
         d="m 48.196759,963.10825 c -1.65441,1.23855 -2.321076,3.2256 -3.761719,7.51954 -1.440643,4.29394 -1.503906,4.51171 -1.503906,4.51171 l -5.265625,15.79688 -6.015625,18.05082 -3.007812,9.0234 -6.34375,0 c -2,0 -3.860873,1.5107 -4.445313,3.5039 l -3.503906,11.9199 c -1.144783,3.9115 -2.279638,7.7947 -3.429687,11.7266 -0.481394,1.6434 0.0011,2.852 0.777343,3.6875 0.481014,0.5172 1.074588,0.8913 1.621094,1.1406 0.54688,0.2429 0.920775,0.3731 1.351562,0.3731 1.004345,0 18.539258,-0.01 36.572266,-0.01 l 0,0 c 18.033008,0 35.567921,0.01 36.572266,0.01 0.430787,0 0.804682,-0.1302 1.351562,-0.3731 0.546506,-0.2493 1.14008,-0.6234 1.621094,-1.1406 0.776228,-0.8355 1.258738,-2.0441 0.777344,-3.6875 -1.150049,-3.9319 -2.284905,-7.8151 -3.429688,-11.7266 l -3.503906,-11.9199 c -0.58444,-1.9932 -2.445313,-3.5039 -4.445313,-3.5039 l -6.34375,0 -3.007812,-9.0234 -6.015625,-18.05082 -5.265625,-15.79688 c 0,0 -0.06885,-0.23443 -1.503906,-4.51171 -1.435052,-4.27728 -2.097358,-6.25133 -3.761719,-7.51954 -0.831195,-0.63336 -1.999923,-0.74609 -3.044922,-0.74609 -1.044999,0 -2.208378,0.11982 -3.044922,0.74609 z"
         id="path4794"
         inkscape:connector-curvature="0"
         sodipodi:nodetypes="szccccscccccsccscccccscccczsas" />
    </clipPath>
    <clipPath
       clipPathUnits="userSpaceOnUse"
       id="clipPath7773-3">
      <path
         sodipodi:nodetypes="szccccscccccsccscccccscccczsas"
         inkscape:connector-curvature="0"
         id="path7776-7"
         d="m 649.66675,1005.5682 c -1.65441,1.2385 -2.32108,3.2256 -3.76172,7.5195 -1.44064,4.2939 -1.50391,4.5117 -1.50391,4.5117 l -5.26562,15.7969 -6.01563,18.0508 -3.00781,9.0234 -6.34375,0 c -2,0 -3.86087,1.5107 -4.44531,3.5039 l -3.50391,11.9199 c -1.14478,3.9115 -2.27963,7.7947 -3.42968,11.7266 -0.4814,1.6434 10e-4,2.852 0.77734,3.6875 0.48101,0.5172 1.07459,0.8913 1.62109,1.1406 0.54688,0.2429 0.92078,0.3731 1.35156,0.3731 1.00435,0 18.53926,-0.01 36.57227,-0.01 l 0,0 c 18.03301,0 35.56792,0.01 36.57227,0.01 0.43078,0 0.80468,-0.1302 1.35156,-0.3731 0.5465,-0.2493 1.14008,-0.6234 1.62109,-1.1406 0.77623,-0.8355 1.25874,-2.0441 0.77735,-3.6875 -1.15005,-3.9319 -2.28491,-7.8151 -3.42969,-11.7266 l -3.50391,-11.9199 c -0.58444,-1.9932 -2.44531,-3.5039 -4.44531,-3.5039 l -6.34375,0 -3.00781,-9.0234 -6.01563,-18.0508 -5.26562,-15.7969 c 0,0 -0.0688,-0.2344 -1.50391,-4.5117 -1.43505,-4.2773 -2.09736,-6.2513 -3.76172,-7.5195 -0.83119,-0.6334 -1.99992,-0.7461 -3.04492,-0.7461 -1.045,0 -2.20838,0.1198 -3.04492,0.7461 z"
         style="fill:#ff8800" />
    </clipPath>
    <clipPath
       clipPathUnits="userSpaceOnUse"
       id="clipPath4251">
      <path
         style="color:#000000;display:inline;overflow:visible;visibility:visible;opacity:1;fill:#fafafa;fill-opacity:1;fill-rule:nonzero;stroke:none;stroke-width:1.77165353;stroke-linecap:round;stroke-linejoin:round;stroke-miterlimit:4;stroke-dasharray:none;stroke-dashoffset:0;stroke-opacity:1;marker:none;enable-background:accumulate"
         d="m 667.35922,1051.5314 c -4.19433,0.1113 -8.3664,1.1557 -12.19227,3.123 l 0,-0.026 c -4.81704,2.4865 -8.82057,6.3048 -11.53037,11.0001 -0.46989,0.8178 -0.8977,1.6589 -1.28359,2.5196 l 0.004,0 c -3.65072,8.1317 -3.25634,17.51 1.06417,25.3061 0.06,0.1598 0.13342,0.3182 0.21942,0.4718 0.86786,1.5034 2.78946,2.0195 4.29326,1.1519 0.8508,-0.4899 1.36985,-1.3211 1.51763,-2.2197 11.45968,9.6976 23.94309,9.4992 37.38866,0 0.14756,0.8969 0.66548,1.7257 1.51398,2.2161 1.50381,0.8675 3.42547,0.3496 4.29326,-1.152 0.0412,-0.074 0.0817,-0.1457 0.11702,-0.2194 4.35501,-7.7476 4.81682,-17.0939 1.24702,-25.2329 -0.0492,-0.2274 -0.12556,-0.447 -0.22307,-0.6546 -0.73382,-1.5735 -2.60255,-2.2549 -4.17624,-1.5213 l -0.004,0.01 c -0.15705,0.073 -0.29642,0.1652 -0.43517,0.2596 -0.65061,-1.0008 -1.37163,-1.954 -2.1576,-2.8524 l 0.27792,-0.4059 c 0,0 1.49113,-2.3669 0.83379,-3.0243 -0.65733,-0.6574 -3.0243,0.8338 -3.0243,0.8338 l -0.41689,0.2852 c -1.05633,-0.932 -2.18909,-1.7736 -3.38634,-2.516 0.1232,-0.1672 0.2308,-0.3523 0.32181,-0.5485 0.73368,-1.5729 0.0547,-3.4414 -1.51763,-4.1763 -0.13191,-0.061 -0.26707,-0.1105 -0.40592,-0.1535 -3.92489,-1.7615 -8.14422,-2.5835 -12.33855,-2.4721 z"
         id="path4253"
         inkscape:connector-curvature="0"
         sodipodi:nodetypes="sccccccccccccccccccccsccccccs" />
    </clipPath>
  </defs>
  <sodipodi:namedview
     id="base"
     pagecolor="#ffffff"
     bordercolor="#666666"
     borderopacity="1.0"
     inkscape:pageopacity="0.0"
     inkscape:pageshadow="2"
     inkscape:zoom="8.0000004"
     inkscape:cx="30.573185"
     inkscape:cy="33.978592"
     inkscape:document-units="px"
     inkscape:current-layer="layer1"
     showgrid="true"
     units="px"
     inkscape:window-width="1920"
     inkscape:window-height="1043"
     inkscape:window-x="1920"
     inkscape:window-y="0"
     inkscape:window-maximized="1"
     inkscape:snap-bbox="true"
     inkscape:bbox-paths="true"
     inkscape:bbox-nodes="true"
     inkscape:snap-bbox-edge-midpoints="true"
     inkscape:snap-bbox-midpoints="true"
     inkscape:object-paths="true"
     inkscape:snap-intersection-paths="true"
     inkscape:object-nodes="true"
     inkscape:snap-smooth-nodes="true"
     inkscape:snap-midpoints="true"
     inkscape:snap-object-midpoints="true"
     inkscape:snap-center="true"
     inkscape:snap-grids="false"
     inkscape:snap-global="true">
    <inkscape:grid
       type="xygrid"
       id="grid4142" />
  </sodipodi:namedview>
  <metadata
     id="metadata4831">
    <rdf:RDF>
      <cc:Work
         rdf:about="">
        <dc:format>image/svg+xml</dc:format>
        <dc:type
           rdf:resource="http://purl.org/dc/dcmitype/StillImage" />
        <dc:title />
      </cc:Work>
    </rdf:RDF>
  </metadata>
  <g
     inkscape:label="Layer 1"
     inkscape:groupmode="layer"
     id="layer1"
     transform="translate(0,-1004.3622)">
    <path
       style="fill:#ff8800"
       d="M 24 2 C 23.051724 2 22.429801 2.4204656 21.914062 2.9472656 C 21.200969 3.6757656 20.585937 5.7929688 20.585938 5.7929688 L 19.828125 8.0683594 C 22.862682 9.5855594 25.02662 9.7274594 28.171875 8.0683594 L 27.414062 5.7929688 C 27.414062 5.7929688 26.79903 3.6757656 26.085938 2.9472656 C 25.570199 2.4204656 24.948276 2 24 2 z M 17.171875 16.035156 L 14.138672 25.138672 C 16.035789 27.0358 18.03931 28.042522 20.134766 28.53125 C 21.276039 27.347518 22.602578 26.345675 24.078125 25.583984 L 24.078125 25.576172 L 24.080078 25.576172 C 26.123487 24.525272 28.349643 23.967691 30.589844 23.908203 C 31.571698 23.882131 32.554768 23.967532 33.527344 24.132812 L 30.828125 16.035156 C 28.552263 17.742056 26.430622 18.595703 24 18.595703 C 21.569378 18.595703 19.447737 17.742056 17.171875 16.035156 z M 9.3964844 29.689453 C 8.3878641 29.689453 7.4326459 30.571937 7.1210938 31.585938 L 3.8007812 42.964844 C 3.357302 44.485344 3.5173087 46 5.6035156 46 L 17.636719 46 C 16.163482 43.185183 15.627025 40.01211 16.052734 36.927734 C 14.482948 36.276379 13.040701 35.396266 11.861328 34.242188 C 11.289155 33.682388 11.481864 33.102844 11.861328 31.964844 C 12.114269 31.206244 12.621094 29.689453 12.621094 29.689453 L 9.3964844 29.689453 z "
       transform="translate(0,1004.3622)"
       id="path4795" />
    <path
       style="fill:#f46e00;fill-opacity:1"
       d="M 3.8515625 45.242188 C 4.1348416 45.704287 4.6806422 46 5.6035156 46 L 17.636719 46 C 17.505991 45.750227 17.383491 45.49733 17.267578 45.242188 L 3.8515625 45.242188 z "
       transform="translate(0,1004.3622)"
       id="path4790" />
    <path
       style="fill:#fafafa"
       d="M 19.828125 8.0683594 L 17.171875 16.035156 C 19.447737 17.742056 21.569378 18.595703 24 18.595703 C 26.430622 18.595703 28.552263 17.742056 30.828125 16.035156 L 28.173828 8.0683594 L 28.171875 8.0683594 C 25.02662 9.7274594 22.862682 9.5855594 19.828125 8.0683594 z M 14.138672 25.138672 L 12.621094 29.689453 C 12.621094 29.689453 12.114269 31.206244 11.861328 31.964844 C 11.481864 33.102844 11.289155 33.682388 11.861328 34.242188 C 13.040687 35.396252 14.482969 36.274591 16.052734 36.925781 C 16.2471 35.518875 16.639129 34.130535 17.234375 32.804688 C 17.44048 32.344887 17.668947 31.895884 17.919922 31.458984 C 18.537172 30.389542 19.286092 29.411497 20.134766 28.53125 C 18.03931 28.042522 16.035789 27.0358 14.138672 25.138672 z M 32.238281 27.335938 C 32.528897 27.366595 32.819593 27.406122 33.109375 27.458984 C 32.819337 27.406078 32.529158 27.366599 32.238281 27.335938 z "
       transform="translate(0,1004.3622)"
       id="path3151-2-6-0" />
    <path
       style="color:#000000;display:inline;overflow:visible;visibility:visible;opacity:1;fill:#fafafa;fill-opacity:1;fill-rule:nonzero;stroke:none;stroke-width:0.94624442;stroke-linecap:round;stroke-linejoin:round;stroke-miterlimit:4;stroke-dasharray:none;stroke-dashoffset:0;stroke-opacity:1;marker:none;enable-background:accumulate"
       d="M 30.628906 27.265625 C 26.687646 27.394494 22.924462 29.506112 20.828125 33.132812 C 18.733851 36.770113 18.739032 41.247359 20.839844 44.880859 L 20.830078 44.890625 C 21.078255 45.320895 21.110131 45.814365 20.966797 46.251953 L 41.054688 46.251953 C 40.91149 45.814142 40.940859 45.320896 41.189453 44.890625 C 43.104498 41.569025 43.279972 37.523128 41.658203 34.048828 L 41.662109 34.048828 C 41.274067 33.216696 41.628457 32.229972 42.451172 31.830078 C 42.081411 31.268119 41.676548 30.728846 41.230469 30.224609 L 33.708984 41.248047 C 32.506629 43.010347 29.913737 42.950956 28.623047 41.660156 C 27.332367 40.369556 27.272815 37.776519 29.035156 36.574219 L 40.058594 29.052734 C 39.464025 28.526606 38.824175 28.053629 38.150391 27.634766 C 37.728453 28.403532 36.782819 28.728915 35.976562 28.353516 L 35.974609 28.363281 C 34.24904 27.558375 32.420388 27.207048 30.628906 27.265625 z "
       id="path4214"
       transform="translate(0,1004.3622)" />
    <path
       sodipodi:nodetypes="ccccccccccc"
       inkscape:connector-curvature="0"
       id="path7734-7"
       d="m 42.474117,1036.179 c -0.840511,0.3919 -1.20416,1.391 -0.812215,2.2315 h -0.0043 c 1.621769,3.4743 1.447123,7.5213 -0.467922,10.8429 -0.463943,0.803 -0.189179,1.8299 0.613726,2.294 0.803189,0.4632 1.829814,0.1878 2.293302,-0.6153 0.02195,-0.038 0.0423,-0.077 0.06112,-0.1171 2.326021,-4.138 2.57267,-9.1284 0.666031,-13.4756 -0.02638,-0.1208 -0.06599,-0.2382 -0.118079,-0.3503 -0.391935,-0.8405 -1.391033,-1.2041 -2.231544,-0.8122 z"
       style="color:#000000;display:inline;overflow:visible;visibility:visible;opacity:1;fill:#ff610a;fill-opacity:1;fill-rule:nonzero;stroke:none;stroke-width:0.94624442;stroke-linecap:round;stroke-linejoin:round;stroke-miterlimit:4;stroke-dasharray:none;stroke-dashoffset:0;stroke-opacity:1;marker:none;enable-background:accumulate" />
    <path
       inkscape:transform-center-x="-4.4410382"
       inkscape:transform-center-y="-4.4410385"
       sodipodi:nodetypes="csccscc"
       inkscape:connector-curvature="0"
       id="path7736-4"
       d="m 29.035535,1040.9358 c -1.762341,1.2023 -1.703205,3.7958 -0.412525,5.0864 1.29069,1.2908 3.884137,1.3499 5.086492,-0.4124 l 7.526854,-11.0324 c 0,0 0.79789,-1.2642 0.446804,-1.6153 -0.351082,-0.3511 -1.615297,0.4468 -1.615297,0.4468 z"
       style="fill:#ff8800;fill-opacity:1;fill-rule:evenodd;stroke:none;stroke-width:0.53410238px;stroke-linecap:butt;stroke-linejoin:miter;stroke-opacity:1" />
    <path
       style="color:#000000;display:inline;overflow:visible;visibility:visible;opacity:1;fill:#ffca7d;fill-opacity:1;fill-rule:nonzero;stroke:none;stroke-width:0.94624442;stroke-linecap:round;stroke-linejoin:round;stroke-miterlimit:4;stroke-dasharray:none;stroke-dashoffset:0;stroke-opacity:1;marker:none;enable-background:accumulate"
       d="m 24.077532,1029.9459 c -2.572793,1.3281 -4.709956,3.3672 -6.157266,5.8748 -0.250975,0.4369 -0.479934,0.886 -0.686039,1.3458 h 0.0011 c -1.949858,4.3431 -1.739267,9.3511 0.568328,13.5152 0.03205,0.087 0.0712,0.1708 0.117123,0.2511 0.463526,0.8031 1.490226,1.0784 2.293409,0.6152 0.804027,-0.4631 1.080148,-1.4905 0.616579,-2.2942 l 0.0084,-0.01 c -2.100812,-3.6335 -2.104844,-8.1115 -0.01057,-11.7488 3.049217,-5.2752 9.623863,-7.3458 15.145686,-4.7701 l 0.0027,-0.01 c 0.840192,0.3912 1.838461,0.028 2.230428,-0.8121 0.39186,-0.84 0.02905,-1.8386 -0.810602,-2.2311 -0.07044,-0.032 -0.142968,-0.059 -0.217139,-0.082 -4.192587,-1.8819 -9.013689,-1.7539 -13.100507,0.3479 h -0.0011 z"
       id="path7738-2"
       inkscape:connector-curvature="0"
       sodipodi:nodetypes="cccccccccccccccccc" />
  </g>
</svg>
