<?xml version="1.0" encoding="UTF-8" standalone="no"?>
<!-- Created with Inkscape (http://www.inkscape.org/) -->

<svg
   xmlns:dc="http://purl.org/dc/elements/1.1/"
   xmlns:cc="http://creativecommons.org/ns#"
   xmlns:rdf="http://www.w3.org/1999/02/22-rdf-syntax-ns#"
   xmlns:svg="http://www.w3.org/2000/svg"
   xmlns="http://www.w3.org/2000/svg"
   xmlns:sodipodi="http://sodipodi.sourceforge.net/DTD/sodipodi-0.dtd"
   xmlns:inkscape="http://www.inkscape.org/namespaces/inkscape"
   width="24"
   height="24"
   id="svg4682"
   version="1.1"
   inkscape:version="0.91 r13725"
   sodipodi:docname="ic_menu_preferences_normal.svg"
   inkscape:export-filename="/home/corbax/Dev/android/Icons/Test 1/ic_play_normal.png"
   inkscape:export-xdpi="90"
   inkscape:export-ydpi="90">
  <defs
     id="defs4684" />
  <sodipodi:namedview
     id="base"
     pagecolor="#ffffff"
     bordercolor="#666666"
     borderopacity="1.0"
     inkscape:pageopacity="0.0"
     inkscape:pageshadow="2"
     inkscape:zoom="22.4"
     inkscape:cx="-2.7140794"
     inkscape:cy="9.1843418"
     inkscape:document-units="px"
     inkscape:current-layer="layer1"
     showgrid="true"
     inkscape:window-width="1920"
     inkscape:window-height="1056"
     inkscape:window-x="0"
     inkscape:window-y="24"
     inkscape:window-maximized="1">
    <inkscape:grid
       type="xygrid"
       id="grid2983" />
  </sodipodi:namedview>
  <metadata
     id="metadata4687">
    <rdf:RDF>
      <cc:Work
         rdf:about="">
        <dc:format>image/svg+xml</dc:format>
        <dc:type
           rdf:resource="http://purl.org/dc/dcmitype/StillImage" />
        <dc:title />
      </cc:Work>
    </rdf:RDF>
  </metadata>
  <g
     inkscape:label="Layer 1"
     inkscape:groupmode="layer"
     id="layer1"
     transform="translate(0,-1028.3622)">
    <path
       inkscape:connector-curvature="0"
       style="color:#000000;display:inline;overflow:visible;visibility:visible;fill:#000000;fill-opacity:1;fill-rule:nonzero;stroke:none;stroke-width:1;marker:none;enable-background:accumulate"
       d="m 9.22852,1032.8183 c -0.12069,0.01 -0.2437,0.046 -0.36329,0.1152 l -0.86523,0.5 -0.86523,0.5 c -0.47827,0.2762 -0.52196,0.8373 -0.36719,1.3672 l 0.42383,1.4824 c -0.27715,0.3718 -0.51713,0.774 -0.70313,1.2051 L 5,1038.3612 c -0.53653,0.1307 -0.99994,0.4477 -1,1 l 0,1 0,1 c 7e-5,0.5523 0.46373,0.8691 1,1 l 1.48828,0.3711 c 0.18601,0.4318 0.42569,0.8347 0.70313,1.2071 l -0.42383,1.4843 c -0.15506,0.53 -0.11108,1.091 0.36719,1.3672 l 0.86523,0.5 0.86523,0.5 c 0.47835,0.2761 0.98575,0.032 1.36719,-0.3672 l 1.06836,-1.1054 c 0.22984,0.027 0.46221,0.043 0.69922,0.043 0.23701,0 0.46938,-0.016 0.69922,-0.043 l 1.06836,1.1054 c 0.38149,0.3993 0.88888,0.6433 1.36719,0.3672 l 0.86523,-0.5 0.86523,-0.5 c 0.47831,-0.2762 0.52229,-0.8372 0.36719,-1.3672 l -0.42383,-1.4843 c 0.27744,-0.3724 0.51712,-0.7753 0.70313,-1.2071 L 19,1042.3612 c 0.53659,-0.1307 1,-0.4477 1,-1 l 0,-1 0,-1 c 0,-0.5523 -0.46341,-0.8693 -1,-1 l -1.48828,-0.373 c -0.18616,-0.4315 -0.42763,-0.8331 -0.70508,-1.2051 l 0.42578,-1.4824 c 0.15508,-0.53 0.11109,-1.091 -0.36719,-1.3672 l -0.86523,-0.5 -0.86523,-0.5 c -0.47833,-0.2761 -0.98566,-0.032 -1.36719,0.3672 l -1.07031,1.1054 c -0.22922,-0.026 -0.46093,-0.045 -0.69727,-0.045 -0.23634,0 -0.46805,0.018 -0.69727,0.045 l -1.07031,-1.1054 c -0.28609,-0.2995 -0.64185,-0.5119 -1.0039,-0.4824 z M 12,1036.9335 c 1.89355,0 3.42773,1.5341 3.42773,3.4277 0,1.8935 -1.53418,3.4297 -3.42773,3.4297 -1.89355,0 -3.42773,-1.5362 -3.42773,-3.4297 0,-1.8936 1.53418,-3.4277 3.42773,-3.4277 z m 0,1.9277 a 1.5,1.5 0 0 0 -1.5,1.5 1.5,1.5 0 0 0 1.5,1.5 1.5,1.5 0 0 0 1.5,-1.5 1.5,1.5 0 0 0 -1.5,-1.5 z"
       id="path8013-4" />
  </g>
</svg>
