<?xml version="1.0" encoding="UTF-8" standalone="no"?>
<!-- Created with Inkscape (http://www.inkscape.org/) -->

<svg
   xmlns:dc="http://purl.org/dc/elements/1.1/"
   xmlns:cc="http://creativecommons.org/ns#"
   xmlns:rdf="http://www.w3.org/1999/02/22-rdf-syntax-ns#"
   xmlns:svg="http://www.w3.org/2000/svg"
   xmlns="http://www.w3.org/2000/svg"
   xmlns:sodipodi="http://sodipodi.sourceforge.net/DTD/sodipodi-0.dtd"
   xmlns:inkscape="http://www.inkscape.org/namespaces/inkscape"
   width="48"
   height="48"
   viewBox="0 0 48.000001 48.000001"
   id="svg4826"
   version="1.1"
   inkscape:version="0.91 r13725"
   sodipodi:docname="ic_cone.svg">
  <defs
     id="defs4828">
    <clipPath
       clipPathUnits="userSpaceOnUse"
       id="clipPath4792">
      <path
         style="fill:#ff8800"
         d="m 48.196759,963.10825 c -1.65441,1.23855 -2.321076,3.2256 -3.761719,7.51954 -1.440643,4.29394 -1.503906,4.51171 -1.503906,4.51171 l -5.265625,15.79688 -6.015625,18.05082 -3.007812,9.0234 -6.34375,0 c -2,0 -3.860873,1.5107 -4.445313,3.5039 l -3.503906,11.9199 c -1.144783,3.9115 -2.279638,7.7947 -3.429687,11.7266 -0.481394,1.6434 0.0011,2.852 0.777343,3.6875 0.481014,0.5172 1.074588,0.8913 1.621094,1.1406 0.54688,0.2429 0.920775,0.3731 1.351562,0.3731 1.004345,0 18.539258,-0.01 36.572266,-0.01 l 0,0 c 18.033008,0 35.567921,0.01 36.572266,0.01 0.430787,0 0.804682,-0.1302 1.351562,-0.3731 0.546506,-0.2493 1.14008,-0.6234 1.621094,-1.1406 0.776228,-0.8355 1.258738,-2.0441 0.777344,-3.6875 -1.150049,-3.9319 -2.284905,-7.8151 -3.429688,-11.7266 l -3.503906,-11.9199 c -0.58444,-1.9932 -2.445313,-3.5039 -4.445313,-3.5039 l -6.34375,0 -3.007812,-9.0234 -6.015625,-18.05082 -5.265625,-15.79688 c 0,0 -0.06885,-0.23443 -1.503906,-4.51171 -1.435052,-4.27728 -2.097358,-6.25133 -3.761719,-7.51954 -0.831195,-0.63336 -1.999923,-0.74609 -3.044922,-0.74609 -1.044999,0 -2.208378,0.11982 -3.044922,0.74609 z"
         id="path4794"
         inkscape:connector-curvature="0"
         sodipodi:nodetypes="szccccscccccsccscccccscccczsas" />
    </clipPath>
  </defs>
  <sodipodi:namedview
     id="base"
     pagecolor="#ffffff"
     bordercolor="#666666"
     borderopacity="1.0"
     inkscape:pageopacity="0.0"
     inkscape:pageshadow="2"
     inkscape:zoom="15.839192"
     inkscape:cx="28.758162"
     inkscape:cy="27.178375"
     inkscape:document-units="px"
     inkscape:current-layer="layer1"
     showgrid="true"
     units="px"
     inkscape:window-width="1920"
     inkscape:window-height="1056"
     inkscape:window-x="0"
     inkscape:window-y="24"
     inkscape:window-maximized="1">
    <inkscape:grid
       type="xygrid"
       id="grid4142" />
  </sodipodi:namedview>
  <metadata
     id="metadata4831">
    <rdf:RDF>
      <cc:Work
         rdf:about="">
        <dc:format>image/svg+xml</dc:format>
        <dc:type
           rdf:resource="http://purl.org/dc/dcmitype/StillImage" />
        <dc:title></dc:title>
      </cc:Work>
    </rdf:RDF>
  </metadata>
  <g
     inkscape:label="Layer 1"
     inkscape:groupmode="layer"
     id="layer1"
     transform="translate(0,-1004.3622)">
    <path
       style="fill:#ff8800"
       d="M 24 2 C 23.051724 2 22.429801 2.4204656 21.914062 2.9472656 C 21.200969 3.6757656 20.585938 5.7929688 20.585938 5.7929688 L 19.828125 8.0683594 C 22.862682 9.5855594 25.02662 9.7274594 28.171875 8.0683594 L 27.414062 5.7929688 C 27.414062 5.7929688 26.799031 3.6757656 26.085938 2.9472656 C 25.5702 2.4204656 24.948276 2 24 2 z M 17.171875 16.035156 L 14.138672 25.138672 C 17.173155 28.173172 20.477879 28.931641 24 28.931641 C 27.522121 28.931641 30.826845 28.173172 33.861328 25.138672 L 30.828125 16.035156 C 28.552263 17.742056 26.430622 18.595703 24 18.595703 C 21.569378 18.595703 19.447737 17.742056 17.171875 16.035156 z M 9.3964844 29.689453 C 8.3878641 29.689453 7.432646 30.571937 7.1210938 31.585938 L 3.8007812 42.964844 C 3.357302 44.485344 3.5173087 46 5.6035156 46 L 24 46 L 42.396484 46 C 44.482691 46 44.642698 44.485344 44.199219 42.964844 L 40.878906 31.585938 C 40.567354 30.571938 39.612136 29.689453 38.603516 29.689453 L 35.378906 29.689453 C 35.378906 29.689453 35.886047 31.205944 36.138672 31.964844 C 36.505257 33.065944 36.680751 33.621153 36.132812 34.251953 C 33.103741 37.276753 28.275596 38.414062 24 38.414062 C 19.721651 38.412763 14.916759 37.232087 11.861328 34.242188 C 11.289155 33.682388 11.481864 33.102844 11.861328 31.964844 C 12.114269 31.206244 12.621094 29.689453 12.621094 29.689453 L 9.3964844 29.689453 z "
       transform="translate(0,1004.3622)"
       id="path4795" />
    <path
       style="fill:#f46e00;fill-opacity:1"
       d="m 35.379311,1034.0518 c 0,0 0.505996,1.517 0.758621,2.2759 0.366574,1.1011 0.542563,1.6546 -0.0054,2.2855 -3.029079,3.0248 -7.856968,4.164 -12.132564,4.1628 -4.278349,-0 -9.082501,-1.1826 -12.137932,-4.1725 l 11.000001,11 -19.0099685,0 c 0.2832791,0.4621 0.8284736,0.7587 1.751347,0.7587 l 18.3965525,0 18.396552,0 c 2.086207,0 2.245204,-1.514 1.801725,-3.0345 l -3.318966,-11.3793 c -0.311552,-1.014 -1.267242,-1.8966 -2.275862,-1.8966 l -3.224138,0 z"
       id="path4790"
       inkscape:connector-curvature="0" />
    <path
       style="fill:#fafafa"
       d="M 19.828125 8.0683594 L 17.171875 16.035156 C 19.447737 17.742056 21.569378 18.595703 24 18.595703 C 26.430622 18.595703 28.552263 17.742056 30.828125 16.035156 L 28.171875 8.0683594 C 25.02662 9.7274594 22.862682 9.5855594 19.828125 8.0683594 z M 14.138672 25.138672 L 12.621094 29.689453 C 12.621094 29.689453 12.114269 31.206244 11.861328 31.964844 C 11.481864 33.102844 11.289155 33.682388 11.861328 34.242188 C 14.916759 37.232088 19.721651 38.412763 24 38.414062 C 28.275596 38.414062 33.103741 37.276753 36.132812 34.251953 C 36.680751 33.621153 36.505257 33.065944 36.138672 31.964844 C 35.886047 31.205944 35.378906 29.689453 35.378906 29.689453 L 33.861328 25.138672 C 30.826845 28.173172 27.522121 28.931641 24 28.931641 C 20.477879 28.931641 17.173155 28.173172 14.138672 25.138672 z "
       transform="translate(0,1004.3622)"
       id="path3151-2-6-0" />
    <path
       style="opacity:0.6;fill:#ffffff;fill-opacity:0.31372549;fill-rule:evenodd;stroke:none;stroke-width:1px;stroke-linecap:butt;stroke-linejoin:miter;stroke-opacity:1"
       d="m 14.137931,1033.6725 c -1.580296,4.8914 5.023316,5.438 5.655301,1.8851 l 4.586078,-25.7816 c 0.423761,-2.3823 -1.452562,-3.307 -2.275862,-0.7587 z"
       id="path4246"
       inkscape:connector-curvature="0"
       sodipodi:nodetypes="sssss" />
  </g>
</svg>
